# xmcd
#
# Track frame offsets: 
#        150
#        16491
#        36370
#        54720
#        72782
#        92924
#        113778
#        132420
#        147688
#        165202
#        183652
#        202125
#        219103
#        238274
#        256612
#        271752
#        288445
#        306554
#
# Disc length: 4339 seconds
#
# Revision: 0
# Processed by: cddbd v1.5.2PL0 Copyright (c) Steve Scherf et al.
# Submitted via: ExactAudioCopyFreeDBPlugin 1.0
#
DISCID=1510f112
DTITLE=รวมศิลปิน - กีตาร์หวาน อีสานสะออน ชุด 2
DYEAR=1900
DGENRE=
TTITLE0=ศร สินชัย - กระท่อมทำใจ
TTITLE1=ดอกอ้อ ทุ่งทอง - น้องมีผัวแล้ว
TTITLE2=ก้านตอง ทุ่งเงิน - ผ่านมาแค่ให้จำ
TTITLE3=ไหมไทย ใจตะวัน - ใจบ่มักดี
TTITLE4=ศร สินชัย - ช่วยขุดหลุมฝังถ้ายังสงสาร
TTITLE5=เอกพล มนต์ตระการ - สัญญาปลาข่อน
TTITLE6=ก้านตอง ทุ่งเงิน - อ้ายเขี่ยน้องถิ่ม
TTITLE7=เอกพล มนต์ตระการ - เพลงหยังกะได้
TTITLE8=ศร สินชัย - ฝากเพลงให้แฟนเพิ่น
TTITLE9=ไหมไทย ใจตะวัน - คนอ่อนไหว..กำลังใจสำคัญที่สุด
TTITLE10=ดอกอ้อ ทุ่งทอง - ขายก้อยคอยอ้าย
TTITLE11=ศร สินชัย - หอบใจมาโสเจ็บ
TTITLE12=ข้าวทิพย์ ธิดาดิน - น้องเป็นใครในสายตาเขา
TTITLE13=เอกพล มนต์ตระการ - อยู่หม่องใด๋ก็คิดฮอด
TTITLE14=ศร สินชัย - เทพีอีแต๊ก
TTITLE15=ดอกอ้อ ทุ่งทอง - มองจันทร์วันคีดฮอด
TTITLE16=ไหมไทย ใจตะวัน - คนน่าฮัก..อกหักบ่คือ
TTITLE17=ไปถอนคำสาบาน
EXTD=
EXTT0=
EXTT1=
EXTT2=
EXTT3=
EXTT4=
EXTT5=
EXTT6=
EXTT7=
EXTT8=
EXTT9=
EXTT10=
EXTT11=
EXTT12=
EXTT13=
EXTT14=
EXTT15=
EXTT16=
EXTT17=
PLAYORDER=
